<svg width="28" height="28" viewBox="0 0 28 28" fill="none" xmlns="http://www.w3.org/2000/svg">
    <path d="M8.16663 19.8332L8.16663 15.1665" stroke="#242424" stroke-width="1.5" stroke-linecap="round"/>
    <path d="M14 19.8332L14 8.1665" stroke="#242424" stroke-width="1.5" stroke-linecap="round"/>
    <path d="M19.8333 19.833L19.8333 12.833" stroke="#242424" stroke-width="1.5" stroke-linecap="round"/>
    <path
        d="M2.91663 13.9998C2.91663 8.7751 2.91663 6.16274 4.53974 4.53962C6.16286 2.9165 8.77523 2.9165 14 2.9165C19.2247 2.9165 21.8371 2.9165 23.4602 4.53962C25.0833 6.16274 25.0833 8.7751 25.0833 13.9998C25.0833 19.2246 25.0833 21.8369 23.4602 23.4601C21.8371 25.0832 19.2247 25.0832 14 25.0832C8.77523 25.0832 6.16286 25.0832 4.53974 23.4601C2.91663 21.8369 2.91663 19.2246 2.91663 13.9998Z"
        stroke="#242424" stroke-width="1.5" stroke-linejoin="round"/>
</svg>
