<svg width="28" height="28" viewBox="0 0 28 28" fill="none" xmlns="http://www.w3.org/2000/svg">
    <path d="M8.75 5.8335H18.6667C19.6332 5.8335 20.4167 6.617 20.4167 7.5835V9.3335" stroke="#242424"
          stroke-width="1.5" stroke-linecap="round" stroke-linejoin="round"/>
    <path
        d="M22.5499 24.3L22.0195 23.7697L22.5499 24.3ZM21.5834 3.0835C21.9976 3.0835 22.3334 2.74771 22.3334 2.3335C22.3334 1.91928 21.9976 1.5835 21.5834 1.5835V3.0835ZM23.1667 11.6668V16.3335H24.6667V11.6668H23.1667ZM14.5834 24.9168H13.4167V26.4168H14.5834V24.9168ZM4.83337 16.3335V5.8335H3.33337V16.3335H4.83337ZM13.4167 24.9168C11.1956 24.9168 9.60525 24.9152 8.39604 24.7527C7.20841 24.593 6.50138 24.2905 5.98054 23.7697L4.91988 24.8303C5.76587 25.6763 6.84221 26.0573 8.19617 26.2393C9.52856 26.4184 11.238 26.4168 13.4167 26.4168V24.9168ZM3.33337 16.3335C3.33337 18.5122 3.33178 20.2216 3.51092 21.554C3.69295 22.908 4.07388 23.9843 4.91988 24.8303L5.98054 23.7697C5.4597 23.2488 5.15721 22.5418 4.99754 21.3542C4.83497 20.145 4.83337 18.5546 4.83337 16.3335H3.33337ZM23.1667 16.3335C23.1667 18.5546 23.1651 20.145 23.0025 21.3542C22.8429 22.5418 22.5404 23.2488 22.0195 23.7697L23.0802 24.8303C23.9262 23.9843 24.3071 22.908 24.4892 21.554C24.6683 20.2216 24.6667 18.5122 24.6667 16.3335H23.1667ZM14.5834 26.4168C16.7621 26.4168 18.4715 26.4184 19.8039 26.2393C21.1579 26.0573 22.2342 25.6763 23.0802 24.8303L22.0195 23.7697C21.4987 24.2905 20.7917 24.593 19.604 24.7527C18.3948 24.9152 16.8045 24.9168 14.5834 24.9168V26.4168ZM21.5834 1.5835H7.58337V3.0835H21.5834V1.5835ZM7.58337 10.0835H21.5834V8.5835H7.58337V10.0835ZM3.33337 5.8335C3.33337 8.18071 5.23616 10.0835 7.58337 10.0835V8.5835C6.06459 8.5835 4.83337 7.35228 4.83337 5.8335H3.33337ZM7.58337 1.5835C5.23616 1.5835 3.33337 3.48629 3.33337 5.8335H4.83337C4.83337 4.31471 6.06459 3.0835 7.58337 3.0835V1.5835ZM24.6667 11.6668C24.6667 9.96395 23.2863 8.5835 21.5834 8.5835V10.0835C22.4578 10.0835 23.1667 10.7924 23.1667 11.6668H24.6667Z"
        fill="#242424"/>
    <path d="M17.5 15.167L10.5 15.167" stroke="#242424" stroke-width="1.5" stroke-linecap="round"
          stroke-linejoin="round"/>
    <path d="M14 19.8335L10.5 19.8335" stroke="#242424" stroke-width="1.5" stroke-linecap="round"
          stroke-linejoin="round"/>
</svg>
