<svg width="28" height="28" viewBox="0 0 28 28" fill="none" xmlns="http://www.w3.org/2000/svg">
    <path
        d="M12.6528 2.89145C13.3103 2.5198 13.639 2.33398 14 2.33398C14.361 2.33398 14.6897 2.5198 15.3472 2.89145L23.1528 7.30379C23.8103 7.67543 24.139 7.86125 24.3195 8.16732C24.5 8.47339 24.5 8.84503 24.5 9.58831V18.413C24.5 19.1563 24.5 19.5279 24.3195 19.834C24.139 20.1401 23.8103 20.3259 23.1528 20.6975L15.3472 25.1099C14.6897 25.4815 14.361 25.6673 14 25.6673C13.639 25.6673 13.3103 25.4815 12.6528 25.1099L4.84715 20.6975C4.1897 20.3259 3.86097 20.1401 3.68048 19.834C3.5 19.5279 3.5 19.1563 3.5 18.413V9.58831C3.5 8.84503 3.5 8.47339 3.68048 8.16732C3.86097 7.86125 4.1897 7.67543 4.84715 7.30379L12.6528 2.89145Z"
        stroke="#242424" stroke-width="1.5" stroke-linecap="round" stroke-linejoin="round"/>
    <path
        d="M18.0833 4.98242L15.323 6.47589C14.677 6.82539 14.354 7.00014 14 7.00014C13.6459 7.00014 13.3229 6.82539 12.6769 6.47589L9.91663 4.98242"
        stroke="#242424" stroke-width="1.5" stroke-linecap="round" stroke-linejoin="round"/>
    <path d="M14 13.5516V25.667M14 13.5516L23.9167 8.16699M14 13.5516L4.08337 8.16699" stroke="#242424"
          stroke-width="1.5" stroke-linecap="round" stroke-linejoin="round"/>
    <path
        d="M3.5 14L6.87683 15.8183C7.5044 16.1562 7.81819 16.3252 7.99243 16.6288C8.16667 16.9324 8.16667 17.3102 8.16667 18.0658V22.1667"
        stroke="#242424" stroke-width="1.5" stroke-linecap="round" stroke-linejoin="round"/>
    <path
        d="M24.5 14L21.1232 15.8183C20.4956 16.1562 20.1819 16.3252 20.0076 16.6288C19.8334 16.9324 19.8334 17.3102 19.8334 18.0658V22.1667"
        stroke="#242424" stroke-width="1.5" stroke-linecap="round" stroke-linejoin="round"/>
</svg>
