<svg width="28" height="28" viewBox="0 0 28 28" fill="none" xmlns="http://www.w3.org/2000/svg">
    <path
        d="M2.62997 18.2373C2.66959 17.8602 2.94284 17.5563 3.48935 16.9486L4.69225 15.6037C4.98629 15.2315 5.19495 14.583 5.19495 13.9995C5.19495 13.4163 4.98622 12.7677 4.69223 12.3955L3.48934 11.0507C2.94284 10.4429 2.66959 10.1391 2.62997 9.76196C2.59036 9.38487 2.79447 9.03064 3.2027 8.32219L3.77855 7.32282C4.21406 6.56702 4.43182 6.18911 4.80232 6.03842C5.17283 5.88773 5.59185 6.00664 6.42991 6.24446L7.85352 6.64544C8.38856 6.76882 8.9499 6.69883 9.43844 6.44782L9.83147 6.22105C10.2504 5.95273 10.5726 5.55712 10.751 5.09209L11.1406 3.92848C11.3968 3.15845 11.5249 2.77344 11.8298 2.55323C12.1347 2.33301 12.5398 2.33301 13.3499 2.33301H14.6504C15.4605 2.33301 15.8656 2.33301 16.1705 2.55323C16.4754 2.77344 16.6035 3.15845 16.8597 3.92848L17.2493 5.09209C17.4277 5.55712 17.7499 5.95273 18.1688 6.22105L18.5619 6.44782C19.0504 6.69883 19.6117 6.76882 20.1468 6.64544L21.5704 6.24446C22.4085 6.00664 22.8275 5.88773 23.198 6.03842C23.5685 6.18911 23.7862 6.56702 24.2218 7.32282L24.7976 8.32219C25.2058 9.03064 25.4099 9.38487 25.3703 9.76196C25.3307 10.1391 25.0575 10.4429 24.511 11.0507L23.3081 12.3955C23.0141 12.7677 22.8054 13.4163 22.8054 13.9995C22.8054 14.583 23.014 15.2315 23.3081 15.6037L24.511 16.9486C25.0575 17.5563 25.3307 17.8602 25.3703 18.2373C25.4099 18.6144 25.2058 18.9686 24.7976 19.6771L24.2218 20.6764C23.7863 21.4322 23.5685 21.8101 23.198 21.9608C22.8275 22.1115 22.4084 21.9926 21.5704 21.7548L20.1468 21.3538C19.6117 21.2304 19.0503 21.3004 18.5617 21.5515L18.1687 21.7783C17.7498 22.0466 17.4277 22.4422 17.2493 22.9071L16.8597 24.0709C16.6035 24.8409 16.4754 25.2259 16.1705 25.4461C15.8656 25.6663 15.4605 25.6663 14.6504 25.6663H13.3499C12.5398 25.6663 12.1347 25.6663 11.8298 25.4461C11.5249 25.2259 11.3968 24.8409 11.1406 24.0709"
        stroke="#242424" stroke-width="1.5" stroke-linecap="round"/>
    <path
        d="M18.0472 17.9993L18.5775 18.5297H18.5775L18.0472 17.9993ZM18.9582 12.4254L18.2082 12.4222V12.4254H18.9582ZM18.1809 12.1018L18.7111 12.6322L18.7111 12.6322L18.1809 12.1018ZM16.0147 14.267L15.4844 13.7366L16.0147 14.267ZM14.0238 14.2669L14.554 13.7365L14.0238 14.2669ZM10.2923 10.2441L10.8226 10.7745L10.2923 10.2441ZM15.8672 9.33322V10.0832L15.8704 10.0832L15.8672 9.33322ZM16.1908 10.1105L16.7212 10.6408L16.7212 10.6408L16.1908 10.1105ZM14.0252 12.2762L13.4948 11.7459L13.4948 11.7459L14.0252 12.2762ZM3.28641 21.8121L3.81674 22.3424L3.81676 22.3424L3.28641 21.8121ZM6.47939 25.0051L7.00972 25.5354L7.00976 25.5353L6.47939 25.0051ZM9.37966 14.8894L8.62966 14.8884L9.37966 14.8894ZM8.79395 16.3042L9.3243 16.8345L8.79395 16.3042ZM9.30271 15.6882L8.60999 15.4007L9.30271 15.6882ZM13.401 18.9118L13.402 19.6618L13.401 18.9118ZM11.986 19.4976L11.4556 18.9674L11.986 19.4976ZM12.6021 18.9888L12.3146 18.2961L12.6021 18.9888ZM13.402 19.6618C14.5304 19.6603 15.5374 19.646 16.3752 19.514C17.2186 19.3811 17.9922 19.1149 18.5775 18.5297L17.5169 17.469C17.2521 17.7338 16.8401 17.9222 16.1417 18.0323C15.4377 18.1432 14.5466 18.1602 13.3999 18.1618L13.402 19.6618ZM18.5775 18.5297C18.8329 18.2744 19.0677 18.0103 19.2487 17.678C19.4329 17.34 19.5377 16.9758 19.6009 16.5414C19.7202 15.7227 19.7082 14.4884 19.7082 12.4254H18.2082C18.2082 14.5678 18.2155 15.6457 18.1166 16.3253C18.0708 16.6401 18.0072 16.8215 17.9315 16.9605C17.8526 17.1053 17.7363 17.2496 17.5169 17.469L18.5775 18.5297ZM19.7082 12.4286C19.7128 11.351 18.4107 10.8116 17.6506 11.5713L18.7111 12.6322C18.526 12.8172 18.2071 12.6869 18.2082 12.4222L19.7082 12.4286ZM17.6506 11.5713L15.4844 13.7366L16.5449 14.7975L18.7111 12.6322L17.6506 11.5713ZM15.4844 13.7366C15.2275 13.9934 14.8109 13.9934 14.554 13.7365L13.4935 14.7973C14.3361 15.6398 15.7022 15.6398 16.5449 14.7975L15.4844 13.7366ZM10.1297 14.8905C10.1312 13.7445 10.1483 12.8536 10.2592 12.1496C10.3693 11.4512 10.5578 11.0392 10.8226 10.7745L9.76198 9.71374C9.1767 10.2989 8.91045 11.0727 8.77752 11.9161C8.64547 12.7538 8.63121 13.7607 8.62966 14.8884L10.1297 14.8905ZM10.8226 10.7745C11.0419 10.5552 11.1863 10.4388 11.3311 10.36C11.4701 10.2843 11.6516 10.2207 11.9665 10.1749C12.6462 10.0759 13.7244 10.0832 15.8672 10.0832V8.58322C13.8038 8.58322 12.5693 8.57131 11.7505 8.69049C11.3161 8.75371 10.9518 8.85853 10.6138 9.04261C10.2814 9.22357 10.0174 9.45839 9.76198 9.71374L10.8226 10.7745ZM15.8704 10.0832C15.6062 10.0843 15.475 9.76565 15.6605 9.58015L16.7212 10.6408C17.4814 9.88043 16.9411 8.57862 15.8639 8.58323L15.8704 10.0832ZM15.6605 9.58014L13.4948 11.7459L14.5555 12.8066L16.7212 10.6408L15.6605 9.58014ZM13.4948 11.7459C12.6534 12.5875 12.6497 13.9536 13.4935 14.7973L14.554 13.7365C14.2983 13.4808 14.2977 13.0645 14.5556 12.8066L13.4948 11.7459ZM3.81674 24.4747C3.22792 23.8859 3.22792 22.9312 3.81674 22.3424L2.75608 21.2817C1.58147 22.4564 1.58147 24.3608 2.75608 25.5354L3.81674 24.4747ZM5.94906 24.4747C5.36024 25.0635 4.40557 25.0635 3.81674 24.4747L2.75608 25.5354C3.93069 26.71 5.83511 26.71 7.00972 25.5354L5.94906 24.4747ZM11.4556 18.9674L5.94902 24.4748L7.00976 25.5353L12.5164 20.0279L11.4556 18.9674ZM3.81676 22.3424L9.3243 16.8345L8.26361 15.7739L2.75607 21.2818L3.81676 22.3424ZM8.62966 14.8884C8.62936 15.1044 8.62871 15.2255 8.62172 15.3163C8.61861 15.3568 8.61497 15.379 8.61259 15.3904C8.61147 15.3958 8.61065 15.3986 8.61034 15.3996C8.61017 15.4002 8.61007 15.4005 8.61005 15.4005C8.61002 15.4006 8.61001 15.4006 8.60999 15.4007L9.99543 15.9756C10.1419 15.6226 10.1292 15.2391 10.1297 14.8905L8.62966 14.8884ZM9.3243 16.8345C9.56956 16.5893 9.84897 16.3285 9.99543 15.9756L8.60999 15.4007C8.60997 15.4007 8.60987 15.401 8.60939 15.4019C8.60888 15.4029 8.60745 15.4054 8.60447 15.41C8.59818 15.4196 8.58521 15.4376 8.55899 15.4681C8.50014 15.5367 8.41558 15.6219 8.26361 15.7739L9.3243 16.8345ZM13.3999 18.1618C13.0513 18.1623 12.6677 18.1495 12.3146 18.2961L12.8896 19.6815C12.8897 19.6815 12.8897 19.6814 12.8898 19.6814C12.8898 19.6814 12.8901 19.6813 12.8907 19.6811C12.8917 19.6808 12.8945 19.68 12.8999 19.6789C12.9113 19.6765 12.9335 19.6729 12.974 19.6697C13.0648 19.6628 13.1859 19.6621 13.402 19.6618L13.3999 18.1618ZM12.5164 20.0279C12.6684 19.8759 12.7536 19.7913 12.8222 19.7325C12.8527 19.7063 12.8707 19.6933 12.8803 19.687C12.8849 19.684 12.8875 19.6826 12.8884 19.6821C12.8893 19.6816 12.8896 19.6815 12.8896 19.6815L12.3146 18.2961C11.9617 18.4426 11.7009 18.722 11.4556 18.9674L12.5164 20.0279Z"
        fill="#242424"/>
</svg>
