<svg width="28" height="28" viewBox="0 0 28 28" fill="none" xmlns="http://www.w3.org/2000/svg">
    <path
        d="M2.33337 6.99967C2.33337 4.79979 2.33337 3.69984 3.01679 3.01643C3.70021 2.33301 4.80015 2.33301 7.00004 2.33301C9.19993 2.33301 10.2999 2.33301 10.9833 3.01643C11.6667 3.69984 11.6667 4.79979 11.6667 6.99967V9.33301C11.6667 11.5329 11.6667 12.6328 10.9833 13.3163C10.2999 13.9997 9.19993 13.9997 7.00004 13.9997C4.80015 13.9997 3.70021 13.9997 3.01679 13.3163C2.33337 12.6328 2.33337 11.5329 2.33337 9.33301V6.99967Z"
        stroke="#242424" stroke-width="1.5"/>
    <path
        d="M2.33337 22.166C2.33337 21.0788 2.33337 20.5352 2.51099 20.1064C2.74781 19.5347 3.20205 19.0804 3.77378 18.8436C4.20258 18.666 4.74618 18.666 5.83337 18.666H8.16671C9.2539 18.666 9.7975 18.666 10.2263 18.8436C10.798 19.0804 11.2523 19.5347 11.4891 20.1064C11.6667 20.5352 11.6667 21.0788 11.6667 22.166C11.6667 23.2532 11.6667 23.7968 11.4891 24.2256C11.2523 24.7973 10.798 25.2516 10.2263 25.4884C9.7975 25.666 9.2539 25.666 8.16671 25.666H5.83337C4.74618 25.666 4.20258 25.666 3.77378 25.4884C3.20205 25.2516 2.74781 24.7973 2.51099 24.2256C2.33337 23.7968 2.33337 23.2532 2.33337 22.166Z"
        stroke="#242424" stroke-width="1.5"/>
    <path
        d="M16.3334 18.6667C16.3334 16.4668 16.3334 15.3668 17.0168 14.6834C17.7002 14 18.8002 14 21 14C23.1999 14 24.2999 14 24.9833 14.6834C25.6667 15.3668 25.6667 16.4668 25.6667 18.6667V21C25.6667 23.1999 25.6667 24.2998 24.9833 24.9832C24.2999 25.6667 23.1999 25.6667 21 25.6667C18.8002 25.6667 17.7002 25.6667 17.0168 24.9832C16.3334 24.2998 16.3334 23.1999 16.3334 21V18.6667Z"
        stroke="#242424" stroke-width="1.5"/>
    <path
        d="M16.3334 5.83301C16.3334 4.74581 16.3334 4.20221 16.511 3.77341C16.7478 3.20168 17.202 2.74744 17.7738 2.51062C18.2026 2.33301 18.7462 2.33301 19.8334 2.33301H22.1667C23.2539 2.33301 23.7975 2.33301 24.2263 2.51062C24.798 2.74744 25.2523 3.20168 25.4891 3.77341C25.6667 4.20221 25.6667 4.74581 25.6667 5.83301C25.6667 6.9202 25.6667 7.4638 25.4891 7.8926C25.2523 8.46433 24.798 8.91857 24.2263 9.15539C23.7975 9.33301 23.2539 9.33301 22.1667 9.33301H19.8334C18.7462 9.33301 18.2026 9.33301 17.7738 9.15539C17.202 8.91857 16.7478 8.46433 16.511 7.8926C16.3334 7.4638 16.3334 6.9202 16.3334 5.83301Z"
        stroke="#242424" stroke-width="1.5"/>
</svg>
