<svg width="28" height="28" viewBox="0 0 28 28" fill="none" xmlns="http://www.w3.org/2000/svg">
    <path
        d="M2.33337 8.16667C2.33337 6.53318 2.33337 5.71644 2.65127 5.09253C2.9309 4.54372 3.3771 4.09753 3.9259 3.8179C4.54981 3.5 5.36655 3.5 7.00004 3.5C8.63353 3.5 9.45027 3.5 10.0742 3.8179C10.623 4.09753 11.0692 4.54372 11.3488 5.09253C11.6667 5.71644 11.6667 6.53318 11.6667 8.16667V19.8333C11.6667 21.4668 11.6667 22.2836 11.3488 22.9075C11.0692 23.4563 10.623 23.9025 10.0742 24.1821C9.45027 24.5 8.63353 24.5 7.00004 24.5C5.36655 24.5 4.54981 24.5 3.9259 24.1821C3.3771 23.9025 2.9309 23.4563 2.65127 22.9075C2.33337 22.2836 2.33337 21.4668 2.33337 19.8333V8.16667Z"
        stroke="#242424" stroke-width="1.5" stroke-linecap="round" stroke-linejoin="round"/>
    <path d="M7 19.8335H7.01048" stroke="#242424" stroke-width="2" stroke-linecap="round" stroke-linejoin="round"/>
    <path d="M2.33337 8.1665H11.6667" stroke="#242424" stroke-width="1.5" stroke-linecap="round"
          stroke-linejoin="round"/>
    <path
        d="M13.3568 9.6465C12.9427 8.09478 12.7357 7.31892 12.8783 6.64532C13.0037 6.05281 13.3127 5.51538 13.761 5.11005C14.2706 4.64926 15.0432 4.44137 16.5885 4.02559C18.1338 3.6098 18.9064 3.40191 19.5772 3.54509C20.1673 3.67103 20.7025 3.98132 21.1061 4.43148C21.565 4.94324 21.772 5.7191 22.1861 7.27082L25.1433 18.3535C25.5574 19.9052 25.7644 20.6811 25.6218 21.3547C25.4964 21.9472 25.1874 22.4846 24.7391 22.8899C24.2295 23.3507 23.4568 23.5586 21.9116 23.9744C20.3663 24.3902 19.5937 24.5981 18.9229 24.4549C18.3328 24.329 17.7976 24.0187 17.394 23.5685C16.9351 23.0568 16.7281 22.2809 16.314 20.7292L13.3568 9.6465Z"
        stroke="#242424" stroke-width="1.5" stroke-linecap="round" stroke-linejoin="round"/>
    <path d="M20.7449 19.478L20.755 19.4753" stroke="#242424" stroke-width="2" stroke-linecap="round"
          stroke-linejoin="round"/>
    <path d="M14 9.33355L21.5835 7" stroke="#242424" stroke-width="1.5" stroke-linecap="round" stroke-linejoin="round"/>
</svg>
