<svg width="27" height="27" viewBox="0 0 27 27" fill="none" xmlns="http://www.w3.org/2000/svg">
    <path
        d="M21.375 10.125C21.375 11.7563 20.8912 13.2525 20.0588 14.5013C18.8438 16.3013 16.92 17.5725 14.6813 17.8988C14.2987 17.9663 13.905 18 13.5 18C13.095 18 12.7012 17.9663 12.3187 17.8988C10.08 17.5725 8.15625 16.3013 6.94125 14.5013C6.10875 13.2525 5.625 11.7563 5.625 10.125C5.625 5.77125 9.14625 2.25 13.5 2.25C17.8538 2.25 21.375 5.77125 21.375 10.125Z"
        fill="#A52F45" stroke="#A52F45" stroke-width="1.5" stroke-linecap="round" stroke-linejoin="round"/>
    <path opacity="0.4"
          d="M23.9062 20.779L22.05 21.2177C21.6337 21.3189 21.3075 21.634 21.2175 22.0502L20.8237 23.704C20.61 24.604 19.4625 24.874 18.8662 24.1652L13.5 18.0002L8.13375 24.1764C7.5375 24.8852 6.39 24.6152 6.17625 23.7152L5.7825 22.0614C5.68125 21.6452 5.355 21.3189 4.95 21.2289L3.09375 20.7902C2.23875 20.5877 1.935 19.5189 2.55375 18.9002L6.94125 14.5127C8.15625 16.3127 10.08 17.584 12.3187 17.9102C12.7012 17.9777 13.095 18.0115 13.5 18.0115C13.905 18.0115 14.2987 17.9777 14.6812 17.9102C16.92 17.584 18.8437 16.3127 20.0587 14.5127L24.4462 18.9002C25.065 19.5077 24.7612 20.5765 23.9062 20.779Z"
          fill="#A52F45" stroke="#A52F45" stroke-width="1.5" stroke-linecap="round" stroke-linejoin="round"/>
    <path
        d="M14.1525 6.7275L14.8162 8.05499C14.9062 8.23499 15.1425 8.415 15.3562 8.44875L16.56 8.65124C17.325 8.77499 17.505 9.3375 16.9537 9.88875L16.02 10.8225C15.8625 10.98 15.7725 11.2838 15.8287 11.5087L16.0988 12.6675C16.3125 13.5787 15.8288 13.9387 15.0188 13.455L13.8938 12.7912C13.6913 12.6675 13.3537 12.6675 13.1512 12.7912L12.0262 13.455C11.2162 13.9275 10.7325 13.5787 10.9462 12.6675L11.2163 11.5087C11.2613 11.295 11.1825 10.98 11.025 10.8225L10.0913 9.88875C9.54 9.3375 9.72 8.78624 10.485 8.65124L11.6888 8.44875C11.8913 8.415 12.1275 8.23499 12.2175 8.05499L12.8812 6.7275C13.2075 6.0075 13.7925 6.0075 14.1525 6.7275Z"
        fill="white" stroke="white" stroke-width="1.5" stroke-linecap="round" stroke-linejoin="round"/>
</svg>
