<svg width="28" height="28" viewBox="0 0 28 28" fill="none" xmlns="http://www.w3.org/2000/svg">
    <path
        d="M6.0181 13.4068C5.93238 15.0355 6.03092 16.7691 4.57582 17.8605C3.89858 18.3684 3.5 19.1655 3.5 20.0121C3.5 21.1766 4.4121 22.1673 5.6 22.1673H22.4C23.5879 22.1673 24.5 21.1766 24.5 20.0121C24.5 19.1655 24.1014 18.3684 23.4242 17.8605C21.9691 16.7691 22.0676 15.0355 21.9819 13.4068C21.7585 9.16158 18.2511 5.83398 14 5.83398C9.74887 5.83398 6.24153 9.16158 6.0181 13.4068Z"
        stroke="#141B34" stroke-width="1.5" stroke-linecap="round" stroke-linejoin="round"/>
    <path
        d="M12.25 3.646C12.25 4.61249 13.0335 5.8335 14 5.8335C14.9665 5.8335 15.75 4.61249 15.75 3.646C15.75 2.6795 14.9665 2.3335 14 2.3335C13.0335 2.3335 12.25 2.6795 12.25 3.646Z"
        stroke="#141B34" stroke-width="1.5"/>
    <path d="M17.5 22.167C17.5 24.1 15.933 25.667 14 25.667C12.067 25.667 10.5 24.1 10.5 22.167" stroke="#141B34"
          stroke-width="1.5" stroke-linecap="round" stroke-linejoin="round"/>
</svg>
