<svg width="20" height="21" viewBox="0 0 20 21" fill="none" xmlns="http://www.w3.org/2000/svg">
    <path
        d="M10.6253 5.2373C10.6253 4.89213 10.3455 4.6123 10.0003 4.6123C9.65515 4.6123 9.37533 4.89213 9.37533 5.2373V9.82064H4.79199C4.44681 9.82064 4.16699 10.1005 4.16699 10.4456C4.16699 10.7908 4.44681 11.0706 4.79199 11.0706H9.37533V15.654C9.37533 15.9991 9.65515 16.279 10.0003 16.279C10.3455 16.279 10.6253 15.9991 10.6253 15.654V11.0706H15.2087C15.5538 11.0706 15.8337 10.7908 15.8337 10.4456C15.8337 10.1005 15.5538 9.82064 15.2087 9.82064H10.6253V5.2373Z"
        fill="#857854"/>
</svg>
