<svg width="28" height="28" viewBox="0 0 28 28" fill="none" xmlns="http://www.w3.org/2000/svg">
    <path
        d="M24.5 20.3C24.5 22.2799 24.5 23.2698 23.7407 23.8849C22.9813 24.5 21.7592 24.5 19.3149 24.5H18.0186C15.5742 24.5 14.3521 24.5 13.5927 23.8849C12.8334 23.2698 12.8334 22.2799 12.8334 20.3L12.8334 7.7C12.8334 5.7201 12.8334 4.73015 13.5927 4.11508C14.3521 3.5 15.5742 3.5 18.0186 3.5L19.3149 3.5C21.7592 3.5 22.9813 3.5 23.7407 4.11508C24.5 4.73015 24.5 5.7201 24.5 7.7L24.5 20.3Z"
        stroke="#242424" stroke-width="1.5" stroke-linejoin="round"/>
    <path
        d="M3.5 5.88112C3.5 4.75865 3.5 4.19741 3.84171 3.84871C4.18342 3.5 4.73339 3.5 5.83333 3.5C6.93328 3.5 7.48325 3.5 7.82496 3.84871C8.16667 4.19741 8.16667 4.75865 8.16667 5.88112L8.16667 18.5357C8.16667 19.5944 8.16667 20.1237 8.07834 20.6358C7.99751 21.1044 7.86189 21.5615 7.67441 21.9972C7.46957 22.4733 7.18183 22.9137 6.60634 23.7946C6.34992 24.1871 6.22171 24.3834 6.06068 24.4529C5.91536 24.5157 5.75131 24.5157 5.60599 24.4529C5.44496 24.3834 5.31675 24.1871 5.06032 23.7946C4.48484 22.9137 4.1971 22.4733 3.99225 21.9972C3.80477 21.5615 3.66916 21.1044 3.58832 20.6358C3.5 20.1237 3.5 19.5944 3.5 18.5357L3.5 5.88112Z"
        stroke="#242424" stroke-width="1.5" stroke-linejoin="round"/>
    <path d="M13.4167 19.25L15.75 19.25" stroke="#242424" stroke-width="1.5" stroke-linecap="round"
          stroke-linejoin="round"/>
    <path d="M13.4167 14L15.75 14" stroke="#242424" stroke-width="1.5" stroke-linecap="round" stroke-linejoin="round"/>
    <path d="M13.4167 8.75L15.75 8.75" stroke="#242424" stroke-width="1.5" stroke-linecap="round"
          stroke-linejoin="round"/>
    <path d="M8.16667 8.1665C8.16667 8.81084 7.122 9.33317 5.83333 9.33317C4.54467 9.33317 3.5 8.81084 3.5 8.1665"
          stroke="#242424" stroke-width="1.5"/>
</svg>
