<svg width="28" height="28" viewBox="0 0 28 28" fill="none" xmlns="http://www.w3.org/2000/svg">
    <path
        d="M13.4167 16.3471C11.029 16.2359 8.61394 16.8076 6.50721 18.062C4.85665 19.0448 0.528966 21.0516 3.16481 23.5628C4.4524 24.7895 5.88645 25.6668 7.68939 25.6668H14"
        stroke="#242424" stroke-width="1.5" stroke-linecap="round" stroke-linejoin="round"/>
    <path
        d="M18.0834 7.5835C18.0834 10.483 15.7329 12.8335 12.8334 12.8335C9.93388 12.8335 7.58337 10.483 7.58337 7.5835C7.58337 4.684 9.93388 2.3335 12.8334 2.3335C15.7329 2.3335 18.0834 4.684 18.0834 7.5835Z"
        stroke="#242424" stroke-width="1.5"/>
    <path
        d="M21 24.167V25.667M21 24.167C19.6505 24.167 18.4614 23.5041 17.7641 22.4975M21 24.167C22.3496 24.167 23.5386 23.5041 24.236 22.4975M21 16.667C22.3497 16.667 23.5388 17.33 24.2362 18.3367M21 16.667C19.6504 16.667 18.4613 17.33 17.7639 18.3367M21 16.667V15.167M25.6667 17.417L24.2362 18.3367M16.3339 23.417L17.7641 22.4975M16.3334 17.417L17.7639 18.3367M25.6662 23.417L24.236 22.4975M24.2362 18.3367C24.6485 18.932 24.8889 19.6474 24.8889 20.417C24.8889 21.1867 24.6485 21.9022 24.236 22.4975M17.7639 18.3367C17.3516 18.932 17.1112 19.6474 17.1112 20.417C17.1112 21.1867 17.3516 21.9022 17.7641 22.4975"
        stroke="#242424" stroke-width="1.5" stroke-linecap="round"/>
</svg>
