<svg width="28" height="28" viewBox="0 0 28 28" fill="none" xmlns="http://www.w3.org/2000/svg">
    <path
        d="M18.6667 16.334C18.6667 17.3005 19.4502 18.084 20.4167 18.084C21.3832 18.084 22.1667 17.3005 22.1667 16.334C22.1667 15.3675 21.3832 14.584 20.4167 14.584C19.4502 14.584 18.6667 15.3675 18.6667 16.334Z"
        stroke="#242424" stroke-width="1.5"/>
    <path
        d="M22.0501 9.33398C22.1266 8.95702 22.1667 8.56686 22.1667 8.16732C22.1667 4.94566 19.5551 2.33398 16.3334 2.33398C13.1118 2.33398 10.5001 4.94566 10.5001 8.16732C10.5001 8.56686 10.5402 8.95702 10.6168 9.33398"
        stroke="#242424" stroke-width="1.5"/>
    <path
        d="M8.16671 9.32675H18.6667C21.9665 9.32675 23.6165 9.32675 24.6416 10.3524C25.6667 11.378 25.6667 13.0287 25.6667 16.3301V18.6646C25.6667 21.966 25.6667 23.6167 24.6416 24.6423C23.6165 25.668 21.9665 25.668 18.6667 25.668H11.6667C7.26693 25.668 5.06704 25.668 3.70021 24.3005C2.33337 22.933 2.33337 20.732 2.33337 16.3301V13.9957C2.33337 9.59377 2.33337 7.39282 3.70021 6.02532C4.80048 4.92452 6.44055 4.70984 9.33337 4.66797H11.6667"
        stroke="#242424" stroke-width="1.5" stroke-linecap="round"/>
</svg>
